<?xml version="1.0" encoding="utf-8"?>
<!-- Generator: Adobe Illustrator 24.0.1, SVG Export Plug-In . SVG Version: 6.00 Build 0)  -->
<svg version="1.1" id="Warstwa_1" xmlns="http://www.w3.org/2000/svg" xmlns:xlink="http://www.w3.org/1999/xlink" x="0px" y="0px"
	 viewBox="0 0 500.33 19" style="enable-background:new 0 0 500.33 19;" xml:space="preserve">
<style type="text/css">
	.st0{fill:#E97674;}
</style>
<path class="st0" d="M-0.43,16.41c65.06,0,132.11,0.94,197.15,0.92c16.43,0,32.85-0.06,49.27-0.22c7.88-0.08,15.76-0.18,23.64-0.29
	c8.11-0.12,16.27,0,24.35-0.67c7.84-0.67,15.64-2.04,23.48-2.59c7.76-0.55,15.57-0.35,23.32-0.26c16.33,0.2,32.65,0.14,49,0.14
	c17.99,0,35.97,0.06,53.96,0.08c8.77,0,17.27,2.52,25.93,0.83c8.5-1.65,23.91,2.06,32.57,1.81c3.42-0.1,3.42-6,0-5.9
	c-7.6,0.24-22.05-4.05-29.51-2.5c-7.72,1.59-15.25-0.2-23.11-0.16c-16.03,0.1-32.05-0.06-48.08-0.06c-16.33,0-32.67,0.1-49-0.02
	c-15.85-0.1-31.52-0.53-47.28,1.45c-16.1,2.04-32.25,1.93-48.43,2.12c-16.1,0.2-32.19,0.29-48.29,0.31
	c-32.53,0.06-65.06-0.14-97.59-0.37c-36.46-0.26-74.92-0.55-111.39-0.55C-3.85,10.51-3.85,16.41-0.43,16.41L-0.43,16.41z"/>
</svg>
